<?xml version="1.0" encoding="UTF-8"?>
<svg xmlns="http://www.w3.org/2000/svg" xmlns:xlink="http://www.w3.org/1999/xlink" width="91px" height="79px" viewBox="0 0 91 79" version="1.1">
<g id="surface1">
<path style=" stroke:none;fill-rule:nonzero;fill:rgb(22.745098%,13.333333%,7.058824%);fill-opacity:1;" d="M 80.699219 17.230469 C 83.542969 17.230469 85.847656 19.234375 85.847656 21.703125 L 85.847656 58.222656 C 85.847656 60.691406 83.542969 62.695312 80.699219 62.695312 L 10.300781 62.695312 C 7.457031 62.695312 5.152344 60.691406 5.152344 58.222656 L 5.152344 21.703125 C 5.152344 19.234375 7.457031 17.230469 10.300781 17.230469 L 80.699219 17.230469 M 80.699219 12.761719 L 10.300781 12.761719 C 4.621094 12.761719 0 16.773438 0 21.703125 L 0 58.222656 C 0 63.152344 4.621094 67.167969 10.300781 67.167969 L 80.699219 67.167969 C 86.378906 67.167969 91 63.152344 91 58.222656 L 91 21.703125 C 91 16.773438 86.378906 12.761719 80.699219 12.761719 Z M 80.699219 12.761719 "/>
<path style=" stroke:none;fill-rule:nonzero;fill:rgb(0.784314%,60%,29.019608%);fill-opacity:1;" d="M 10.300781 64.003906 C 6.042969 64.003906 2.574219 60.992188 2.574219 57.296875 L 2.574219 20.777344 C 2.574219 17.078125 6.042969 14.066406 10.300781 14.066406 L 80.699219 14.066406 C 84.957031 14.066406 88.425781 17.078125 88.425781 20.777344 L 88.425781 57.296875 C 88.425781 60.992188 84.957031 64.003906 80.699219 64.003906 Z M 10.300781 64.003906 "/>
<path style=" stroke:none;fill-rule:nonzero;fill:rgb(1.176471%,51.764706%,38.431373%);fill-opacity:1;" d="M 80.699219 14.066406 C 84.957031 14.066406 88.425781 17.078125 88.425781 20.777344 L 88.425781 57.296875 C 88.425781 60.992188 84.957031 64.003906 80.699219 64.003906 L 10.300781 64.003906 C 6.042969 64.003906 2.574219 60.992188 2.574219 57.296875 "/>
<path style=" stroke:none;fill-rule:nonzero;fill:rgb(41.960784%,25.490196%,14.509804%);fill-opacity:1;" d="M 80.699219 16.304688 C 83.542969 16.304688 85.847656 18.308594 85.847656 20.777344 L 85.847656 57.296875 C 85.847656 59.765625 83.542969 61.769531 80.699219 61.769531 L 10.300781 61.769531 C 7.457031 61.769531 5.152344 59.765625 5.152344 57.296875 L 5.152344 20.777344 C 5.152344 18.308594 7.457031 16.304688 10.300781 16.304688 L 80.699219 16.304688 M 80.699219 11.832031 L 10.300781 11.832031 C 4.621094 11.832031 0 15.84375 0 20.777344 L 0 57.296875 C 0 62.226562 4.621094 66.238281 10.300781 66.238281 L 80.699219 66.238281 C 86.378906 66.238281 91 62.226562 91 57.296875 L 91 20.777344 C 91 15.84375 86.378906 11.832031 80.699219 11.832031 Z M 80.699219 11.832031 "/>
<path style=" stroke:none;fill-rule:nonzero;fill:rgb(22.745098%,13.333333%,7.058824%);fill-opacity:1;" d="M 78.144531 62.042969 C 78.980469 62.769531 78.980469 63.945312 78.140625 64.671875 C 77.304688 65.398438 75.953125 65.398438 75.113281 64.671875 L 67.550781 58.101562 C 66.710938 57.378906 66.710938 56.203125 67.550781 55.476562 C 68.386719 54.75 69.738281 54.75 70.574219 55.476562 Z M 78.144531 62.042969 "/>
<path style=" stroke:none;fill-rule:nonzero;fill:rgb(100%,100%,100%);fill-opacity:1;" d="M 20.359375 43.449219 L 13.863281 43.449219 L 13.863281 39.835938 L 19.902344 39.835938 C 20.246094 39.835938 20.527344 39.59375 20.527344 39.296875 L 20.527344 37.390625 C 20.527344 37.089844 20.246094 36.851562 19.902344 36.851562 L 13.863281 36.851562 L 13.863281 34.585938 L 20.21875 34.585938 C 20.566406 34.585938 20.847656 34.34375 20.847656 34.046875 L 20.847656 32.101562 C 20.847656 31.800781 20.566406 31.5625 20.21875 31.5625 L 10.910156 31.5625 C 10.566406 31.5625 10.285156 31.800781 10.285156 32.101562 L 10.285156 45.972656 C 10.285156 46.273438 10.566406 46.515625 10.910156 46.515625 L 20.359375 46.515625 C 20.703125 46.515625 20.984375 46.273438 20.984375 45.972656 L 20.984375 43.992188 C 20.984375 43.691406 20.703125 43.449219 20.359375 43.449219 Z M 20.359375 43.449219 "/>
<path style=" stroke:none;fill-rule:nonzero;fill:rgb(100%,100%,100%);fill-opacity:1;" d="M 52.886719 31.746094 C 52.839844 31.511719 52.621094 31.339844 52.351562 31.308594 C 52.085938 31.28125 51.824219 31.402344 51.710938 31.609375 L 46.933594 40.3125 L 42.15625 31.609375 C 42.039062 31.398438 41.785156 31.277344 41.511719 31.308594 C 41.242188 31.339844 41.027344 31.515625 40.980469 31.746094 L 37.964844 45.871094 C 37.929688 46.035156 37.980469 46.195312 38.101562 46.316406 C 38.21875 46.445312 38.398438 46.515625 38.582031 46.515625 L 41 46.515625 C 41.300781 46.515625 41.5625 46.324219 41.617188 46.0625 L 42.847656 39.933594 L 46.367188 46.457031 C 46.46875 46.648438 46.691406 46.773438 46.933594 46.773438 C 47.175781 46.773438 47.394531 46.648438 47.496094 46.457031 L 51.019531 39.933594 L 52.25 46.0625 C 52.300781 46.324219 52.5625 46.515625 52.867188 46.515625 L 55.285156 46.515625 C 55.285156 46.515625 55.296875 46.515625 55.300781 46.515625 C 55.644531 46.515625 55.921875 46.273438 55.921875 45.96875 C 55.921875 45.898438 55.90625 45.832031 55.878906 45.765625 Z M 52.886719 31.746094 "/>
<path style=" stroke:none;fill-rule:nonzero;fill:rgb(70.196078%,80.784314%,74.901961%);fill-opacity:1;" d="M 37.960938 45.871094 C 37.929688 46.035156 37.980469 46.195312 38.097656 46.316406 C 38.21875 46.441406 38.394531 46.515625 38.578125 46.515625 L 41 46.515625 C 41.300781 46.515625 41.5625 46.324219 41.617188 46.0625 L 42.847656 39.933594 L 46.367188 46.457031 C 46.464844 46.648438 46.691406 46.773438 46.933594 46.773438 C 47.175781 46.773438 47.394531 46.648438 47.496094 46.457031 L 51.019531 39.933594 L 52.25 46.0625 C 52.300781 46.324219 52.5625 46.515625 52.867188 46.515625 L 55.285156 46.515625 C 55.285156 46.515625 55.296875 46.515625 55.296875 46.515625 C 55.640625 46.515625 55.921875 46.273438 55.921875 45.96875 C 55.921875 45.898438 55.90625 45.832031 55.878906 45.765625 L 52.886719 31.746094 C 52.839844 31.511719 52.621094 31.339844 52.355469 31.308594 C 52.085938 31.28125 51.824219 31.402344 51.710938 31.609375 L 46.933594 40.3125 L 43.75 34.511719 L 39.9375 36.621094 Z M 37.960938 45.871094 "/>
<path style=" stroke:none;fill-rule:nonzero;fill:rgb(70.196078%,80.784314%,74.901961%);fill-opacity:1;" d="M 70.851562 31.789062 C 69.839844 31.472656 68.851562 31.324219 67.8125 31.324219 C 62.949219 31.324219 58.992188 34.792969 58.992188 39.058594 C 58.992188 43.3125 62.949219 46.773438 67.8125 46.773438 C 68.847656 46.773438 69.839844 46.617188 70.851562 46.304688 C 71.101562 46.226562 71.269531 46.019531 71.269531 45.792969 L 71.269531 43.554688 C 71.269531 43.359375 71.144531 43.175781 70.945312 43.078125 C 70.746094 42.984375 70.503906 42.992188 70.308594 43.09375 C 69.5625 43.5 68.71875 43.707031 67.8125 43.707031 C 65.023438 43.707031 62.753906 41.625 62.753906 39.058594 C 62.753906 36.480469 65.023438 34.390625 67.8125 34.390625 C 68.695312 34.390625 69.53125 34.601562 70.308594 35.023438 C 70.503906 35.125 70.746094 35.128906 70.945312 35.035156 C 71.144531 34.9375 71.269531 34.757812 71.269531 34.558594 L 71.269531 32.300781 C 71.269531 32.070312 71.101562 31.867188 70.851562 31.789062 Z M 70.851562 31.789062 "/>
<path style=" stroke:none;fill-rule:nonzero;fill:rgb(100%,100%,100%);fill-opacity:1;" d="M 33.9375 36.171875 L 25.828125 36.171875 C 25.589844 36.171875 25.394531 36.339844 25.394531 36.546875 L 25.394531 37.730469 C 25.394531 37.941406 25.589844 38.105469 25.828125 38.105469 L 33.9375 38.105469 C 34.175781 38.105469 34.375 37.941406 34.375 37.730469 L 34.375 36.546875 C 34.375 36.339844 34.175781 36.171875 33.9375 36.171875 Z M 33.9375 36.171875 "/>
<path style=" stroke:none;fill-rule:nonzero;fill:rgb(100%,100%,100%);fill-opacity:1;" d="M 33.9375 39.96875 L 25.828125 39.96875 C 25.589844 39.96875 25.394531 40.136719 25.394531 40.34375 L 25.394531 41.527344 C 25.394531 41.738281 25.589844 41.90625 25.828125 41.90625 L 33.9375 41.90625 C 34.175781 41.90625 34.375 41.738281 34.375 41.527344 L 34.375 40.34375 C 34.375 40.136719 34.175781 39.96875 33.9375 39.96875 Z M 33.9375 39.96875 "/>
<path style=" stroke:none;fill-rule:nonzero;fill:rgb(70.196078%,80.784314%,74.901961%);fill-opacity:1;" d="M 33.9375 41.902344 C 34.175781 41.902344 34.375 41.738281 34.375 41.527344 L 34.375 40.34375 C 34.375 40.132812 34.175781 39.96875 33.9375 39.96875 L 33.890625 39.96875 L 30.394531 41.902344 Z M 33.9375 41.902344 "/>
<path style=" stroke:none;fill-rule:nonzero;fill:rgb(70.196078%,80.784314%,74.901961%);fill-opacity:1;" d="M 80.28125 39.328125 L 77.460938 39.328125 L 79.882812 36.652344 C 80.410156 36.066406 80.71875 35.570312 80.71875 34.78125 C 80.71875 33.261719 79.195312 32.023438 77.320312 32.023438 C 75.453125 32.023438 73.929688 33.261719 73.929688 34.78125 C 73.929688 35.46875 74.242188 36.09375 74.75 36.574219 L 76.074219 35.070312 C 76.042969 34.976562 76.023438 34.882812 76.023438 34.78125 C 76.023438 34.175781 76.59375 33.675781 77.296875 33.675781 C 77.992188 33.675781 78.582031 34.183594 78.582031 34.78125 C 78.582031 35.035156 78.476562 35.269531 78.300781 35.453125 L 76.574219 37.476562 C 76.578125 37.476562 76.582031 37.476562 76.582031 37.476562 L 73.933594 40.460938 C 73.851562 40.558594 73.839844 40.6875 73.894531 40.796875 C 73.964844 40.902344 74.089844 40.972656 74.230469 40.972656 L 80.28125 40.972656 C 80.480469 40.972656 80.648438 40.832031 80.648438 40.65625 L 80.648438 39.652344 C 80.648438 39.472656 80.480469 39.328125 80.28125 39.328125 Z M 80.28125 39.328125 "/>
<path style=" stroke:none;fill-rule:nonzero;fill:rgb(100%,100%,100%);fill-opacity:1;" d="M 76.574219 60.683594 C 77.410156 61.40625 77.410156 62.582031 76.570312 63.308594 C 75.734375 64.035156 74.382812 64.035156 73.546875 63.308594 L 65.980469 56.742188 C 65.144531 56.015625 65.144531 54.839844 65.980469 54.113281 C 66.816406 53.386719 68.171875 53.386719 69.007812 54.113281 Z M 76.574219 60.683594 "/>
<path style=" stroke:none;fill-rule:nonzero;fill:rgb(76.470588%,86.666667%,80.392157%);fill-opacity:1;" d="M 65.976562 54.113281 C 66.8125 53.386719 68.167969 53.386719 69.003906 54.113281 L 76.570312 60.683594 C 77.410156 61.40625 77.410156 62.582031 76.570312 63.308594 "/>
</g>
</svg>
