<?xml version="1.0" encoding="UTF-8"?>
<svg xmlns="http://www.w3.org/2000/svg" xmlns:xlink="http://www.w3.org/1999/xlink" width="91px" height="79px" viewBox="0 0 91 79" version="1.1">
<g id="surface1">
<path style=" stroke:none;fill-rule:nonzero;fill:rgb(47.45098%,73.333333%,73.72549%);fill-opacity:1;" d="M 17.457031 53.738281 L 14.824219 53.738281 C 13.660156 51.324219 10.910156 49.621094 7.710938 49.621094 C 3.457031 49.621094 0 52.625 0 56.316406 C 0 60.007812 3.457031 63.007812 7.710938 63.007812 C 10.910156 63.007812 13.660156 61.308594 14.824219 58.890625 L 23.390625 58.890625 L 23.390625 51.164062 L 17.457031 51.164062 Z M 7.710938 57.855469 C 6.730469 57.855469 5.933594 57.164062 5.933594 56.316406 C 5.933594 55.464844 6.730469 54.773438 7.710938 54.773438 C 8.6875 54.773438 9.484375 55.464844 9.484375 56.316406 C 9.484375 57.164062 8.6875 57.855469 7.710938 57.855469 Z M 7.710938 57.855469 "/>
<path style=" stroke:none;fill-rule:nonzero;fill:rgb(47.45098%,73.333333%,73.72549%);fill-opacity:1;" d="M 17.457031 39.773438 L 23.390625 39.773438 L 23.390625 46.011719 L 17.457031 46.011719 Z M 17.457031 39.773438 "/>
<path style=" stroke:none;fill-rule:nonzero;fill:rgb(27.45098%,43.529412%,43.921569%);fill-opacity:1;" d="M 67.609375 39.773438 L 73.542969 39.773438 L 73.542969 46.011719 L 67.609375 46.011719 Z M 67.609375 39.773438 "/>
<path style=" stroke:none;fill-rule:nonzero;fill:rgb(27.45098%,43.529412%,43.921569%);fill-opacity:1;" d="M 83.289062 49.625 C 80.089844 49.625 77.339844 51.324219 76.175781 53.738281 L 73.542969 53.738281 L 73.542969 51.164062 L 67.609375 51.164062 L 67.609375 58.890625 L 76.175781 58.890625 C 77.339844 61.308594 80.089844 63.007812 83.289062 63.007812 C 87.542969 63.007812 91 60.007812 91 56.316406 C 91 52.625 87.542969 49.625 83.289062 49.625 Z M 83.289062 57.855469 C 82.3125 57.855469 81.515625 57.164062 81.515625 56.316406 C 81.515625 55.464844 82.3125 54.773438 83.289062 54.773438 C 84.269531 54.773438 85.066406 55.464844 85.066406 56.316406 C 85.066406 57.164062 84.269531 57.855469 83.289062 57.855469 Z M 83.289062 57.855469 "/>
<path style=" stroke:none;fill-rule:nonzero;fill:rgb(47.45098%,73.333333%,73.72549%);fill-opacity:1;" d="M 34.175781 52.980469 L 40.109375 52.980469 L 40.109375 57.855469 L 34.175781 57.855469 Z M 34.175781 52.980469 "/>
<path style=" stroke:none;fill-rule:nonzero;fill:rgb(47.45098%,73.333333%,73.72549%);fill-opacity:1;" d="M 40.109375 65.898438 L 40.109375 63.007812 L 34.175781 63.007812 L 34.175781 65.898438 C 31.390625 66.910156 29.433594 69.296875 29.433594 72.074219 C 29.433594 75.765625 32.890625 78.765625 37.140625 78.765625 C 41.390625 78.765625 44.851562 75.765625 44.851562 72.074219 C 44.851562 69.296875 42.890625 66.910156 40.109375 65.898438 Z M 37.140625 73.613281 C 36.164062 73.613281 35.367188 72.925781 35.367188 72.074219 C 35.367188 71.226562 36.164062 70.535156 37.140625 70.535156 C 38.121094 70.535156 38.914062 71.226562 38.914062 72.074219 C 38.914062 72.925781 38.121094 73.613281 37.140625 73.613281 Z M 37.140625 73.613281 "/>
<path style=" stroke:none;fill-rule:nonzero;fill:rgb(27.45098%,43.529412%,43.921569%);fill-opacity:1;" d="M 50.890625 52.980469 L 56.824219 52.980469 L 56.824219 57.855469 L 50.890625 57.855469 Z M 50.890625 52.980469 "/>
<path style=" stroke:none;fill-rule:nonzero;fill:rgb(27.45098%,43.529412%,43.921569%);fill-opacity:1;" d="M 56.824219 65.898438 L 56.824219 63.007812 L 50.890625 63.007812 L 50.890625 65.898438 C 48.109375 66.910156 46.148438 69.296875 46.148438 72.074219 C 46.148438 75.765625 49.609375 78.765625 53.859375 78.765625 C 58.109375 78.765625 61.566406 75.765625 61.566406 72.074219 C 61.566406 69.296875 59.609375 66.910156 56.824219 65.898438 Z M 53.859375 73.613281 C 52.878906 73.613281 52.085938 72.925781 52.085938 72.074219 C 52.085938 71.226562 52.878906 70.535156 53.859375 70.535156 C 54.835938 70.535156 55.632812 71.226562 55.632812 72.074219 C 55.632812 72.925781 54.835938 73.613281 53.859375 73.613281 Z M 53.859375 73.613281 "/>
<path style=" stroke:none;fill-rule:nonzero;fill:rgb(78.431373%,97.647059%,98.039216%);fill-opacity:1;" d="M 68.125 41.300781 L 22.875 41.300781 C 14.328125 41.300781 7.371094 35.457031 7.371094 28.269531 C 7.371094 23.441406 10.5 19.082031 15.464844 16.820312 C 16.292969 14.242188 18.035156 11.914062 20.472656 10.160156 C 23.347656 8.09375 27.015625 6.953125 30.804688 6.953125 C 31.558594 6.953125 32.3125 7 33.058594 7.089844 C 37.09375 2.765625 43.238281 0.234375 49.867188 0.234375 C 55.472656 0.234375 60.765625 2.039062 64.777344 5.316406 C 68.152344 8.074219 70.308594 11.617188 70.996094 15.460938 C 74.050781 15.941406 76.863281 17.179688 79.101562 19.066406 C 82.023438 21.527344 83.628906 24.792969 83.628906 28.269531 C 83.628906 35.457031 76.675781 41.300781 68.125 41.300781 Z M 68.125 41.300781 "/>
<path style=" stroke:none;fill-rule:nonzero;fill:rgb(57.254902%,89.803922%,91.764706%);fill-opacity:1;" d="M 79.101562 19.066406 C 76.863281 17.179688 74.050781 15.941406 70.996094 15.460938 C 70.308594 11.617188 68.152344 8.074219 64.777344 5.316406 C 60.765625 2.039062 55.472656 0.234375 49.867188 0.234375 C 48.382812 0.234375 46.917969 0.363281 45.5 0.609375 L 45.5 41.300781 L 68.125 41.300781 C 76.675781 41.300781 83.628906 35.457031 83.628906 28.269531 C 83.628906 24.792969 82.023438 21.527344 79.101562 19.066406 Z M 79.101562 19.066406 "/>
<path style=" stroke:none;fill-rule:nonzero;fill:rgb(93.333333%,74.901961%,43.921569%);fill-opacity:1;" d="M 60.871094 37.773438 C 61.957031 36.773438 62.625 35.425781 62.625 33.945312 C 62.625 31.042969 60.078125 28.664062 56.820312 28.390625 C 56.871094 28.234375 56.917969 27.839844 56.917969 26.933594 C 56.917969 24.195312 54.359375 21.976562 51.207031 21.976562 C 48.054688 21.976562 45.5 24.195312 45.5 26.933594 C 45.5 24.195312 42.945312 21.976562 39.792969 21.976562 C 36.636719 21.976562 34.082031 24.195312 34.082031 26.933594 C 34.082031 27.839844 34.128906 28.234375 34.179688 28.390625 C 30.921875 28.664062 28.375 31.042969 28.375 33.945312 C 28.375 35.425781 29.042969 36.773438 30.128906 37.773438 L 30.113281 37.761719 C 29.035156 38.757812 28.375 40.101562 28.375 41.578125 C 28.375 44.523438 31 46.933594 34.328125 47.140625 L 34.328125 47.144531 C 34.167969 47.601562 34.082031 48.085938 34.082031 48.589844 C 34.082031 51.328125 36.636719 53.546875 39.789062 53.546875 C 42.945312 53.546875 45.5 51.328125 45.5 48.589844 C 45.5 51.328125 48.054688 53.546875 51.207031 53.546875 C 54.359375 53.546875 56.917969 51.328125 56.917969 48.589844 C 56.917969 48.085938 56.832031 47.601562 56.671875 47.144531 L 56.667969 47.140625 C 60 46.933594 62.625 44.523438 62.625 41.578125 C 62.625 40.101562 61.964844 38.757812 60.886719 37.761719 Z M 60.871094 37.773438 "/>
<path style=" stroke:none;fill-rule:nonzero;fill:rgb(90.588235%,61.176471%,14.509804%);fill-opacity:1;" d="M 60.871094 37.773438 C 61.957031 36.773438 62.625 35.425781 62.625 33.945312 C 62.625 31 60 28.585938 56.667969 28.378906 C 56.667969 28.378906 56.917969 29.058594 56.917969 26.933594 C 56.917969 24.195312 54.359375 21.976562 51.207031 21.976562 C 48.054688 21.976562 45.5 24.195312 45.5 26.933594 L 45.5 48.589844 C 45.5 51.328125 48.054688 53.546875 51.207031 53.546875 C 54.359375 53.546875 56.917969 51.328125 56.917969 48.589844 C 56.917969 48.085938 56.832031 47.601562 56.671875 47.144531 L 56.667969 47.140625 C 60 46.933594 62.625 44.523438 62.625 41.578125 C 62.625 40.101562 61.964844 38.757812 60.886719 37.761719 Z M 60.871094 37.773438 "/>
<path style=" stroke:none;fill-rule:nonzero;fill:rgb(95.294118%,83.137255%,61.568627%);fill-opacity:1;" d="M 65.59375 33.945312 C 65.59375 30.605469 63.238281 27.6875 59.863281 26.4375 C 59.570312 22.515625 55.800781 19.402344 51.207031 19.402344 C 49.023438 19.402344 47.027344 20.105469 45.5 21.269531 C 43.972656 20.105469 41.976562 19.402344 39.792969 19.402344 C 35.199219 19.402344 31.429688 22.515625 31.136719 26.4375 C 27.761719 27.6875 25.40625 30.605469 25.40625 33.945312 C 25.40625 35.320312 25.804688 36.621094 26.5 37.757812 C 25.789062 38.925781 25.40625 40.230469 25.40625 41.578125 C 25.40625 44.949219 27.773438 47.847656 31.136719 49.089844 C 31.433594 53.011719 35.199219 56.121094 39.792969 56.121094 C 41.976562 56.121094 43.972656 55.414062 45.5 54.253906 C 47.027344 55.414062 49.023438 56.121094 51.207031 56.121094 C 55.800781 56.121094 59.566406 53.011719 59.863281 49.089844 C 63.226562 47.847656 65.59375 44.949219 65.59375 41.578125 C 65.59375 40.230469 65.210938 38.925781 64.5 37.757812 C 65.195312 36.617188 65.59375 35.320312 65.59375 33.945312 Z M 39.792969 50.96875 C 38.632812 50.96875 37.640625 50.339844 37.238281 49.453125 C 38.96875 49.050781 40.546875 48.222656 41.765625 47.050781 L 37.367188 43.59375 C 36.703125 44.230469 35.792969 44.582031 34.800781 44.582031 C 32.894531 44.582031 31.34375 43.234375 31.34375 41.578125 C 31.34375 41.558594 31.34375 41.542969 31.34375 41.523438 C 32.414062 41.894531 33.582031 42.097656 34.800781 42.097656 L 34.800781 36.949219 C 32.894531 36.949219 31.34375 35.601562 31.34375 33.941406 C 31.34375 32.917969 31.945312 32 32.867188 31.457031 C 33.839844 32.582031 35.171875 33.472656 36.746094 33.984375 L 38.828125 29.160156 C 37.765625 28.816406 37.050781 27.917969 37.050781 26.933594 C 37.050781 25.621094 38.28125 24.550781 39.792969 24.550781 C 41.304688 24.550781 42.53125 25.621094 42.53125 26.933594 L 42.53125 48.589844 C 42.53125 49.902344 41.304688 50.96875 39.792969 50.96875 Z M 51.207031 50.96875 C 49.695312 50.96875 48.46875 49.902344 48.46875 48.589844 L 48.46875 26.933594 C 48.46875 25.621094 49.695312 24.550781 51.207031 24.550781 C 52.71875 24.550781 53.949219 25.621094 53.949219 26.933594 C 53.949219 27.917969 53.234375 28.816406 52.171875 29.160156 L 54.253906 33.984375 C 55.828125 33.472656 57.160156 32.582031 58.132812 31.457031 C 59.054688 32.003906 59.660156 32.917969 59.660156 33.945312 C 59.660156 35.601562 58.105469 36.949219 56.199219 36.949219 L 56.199219 42.097656 C 57.417969 42.097656 58.585938 41.894531 59.65625 41.523438 C 59.65625 41.542969 59.660156 41.5625 59.660156 41.578125 C 59.660156 43.234375 58.105469 44.582031 56.199219 44.582031 C 55.210938 44.582031 54.296875 44.230469 53.632812 43.59375 L 49.234375 47.054688 C 50.453125 48.222656 52.035156 49.050781 53.761719 49.453125 C 53.359375 50.339844 52.367188 50.96875 51.207031 50.96875 Z M 51.207031 50.96875 "/>
<path style=" stroke:none;fill-rule:nonzero;fill:rgb(93.333333%,74.901961%,43.921569%);fill-opacity:1;" d="M 65.59375 33.945312 C 65.59375 30.605469 63.238281 27.6875 59.863281 26.4375 C 59.570312 22.515625 55.800781 19.402344 51.207031 19.402344 C 49.023438 19.402344 47.027344 20.105469 45.5 21.269531 C 45.5 26.09375 45.5 50.074219 45.5 54.253906 C 47.027344 55.414062 49.023438 56.121094 51.207031 56.121094 C 55.800781 56.121094 59.566406 53.011719 59.863281 49.089844 C 63.226562 47.847656 65.59375 44.949219 65.59375 41.578125 C 65.59375 40.230469 65.210938 38.925781 64.5 37.757812 C 65.195312 36.617188 65.59375 35.320312 65.59375 33.945312 Z M 51.207031 50.96875 C 49.695312 50.96875 48.46875 49.902344 48.46875 48.589844 L 48.46875 26.933594 C 48.46875 25.621094 49.695312 24.550781 51.207031 24.550781 C 52.71875 24.550781 53.949219 25.621094 53.949219 26.933594 C 53.949219 27.917969 53.234375 28.816406 52.171875 29.160156 L 54.253906 33.984375 C 55.828125 33.472656 57.160156 32.582031 58.132812 31.457031 C 59.054688 32.003906 59.660156 32.917969 59.660156 33.945312 C 59.660156 35.601562 58.105469 36.949219 56.199219 36.949219 L 56.199219 42.097656 C 57.417969 42.097656 58.585938 41.894531 59.65625 41.523438 C 59.65625 41.542969 59.660156 41.5625 59.660156 41.578125 C 59.660156 43.234375 58.105469 44.582031 56.199219 44.582031 C 55.210938 44.582031 54.296875 44.230469 53.632812 43.59375 L 49.234375 47.054688 C 50.453125 48.222656 52.035156 49.050781 53.761719 49.453125 C 53.359375 50.339844 52.367188 50.96875 51.207031 50.96875 Z M 51.207031 50.96875 "/>
</g>
</svg>
